<?xml version="1.0" encoding="UTF-8"?>
<svg id="Capa_2" data-name="Capa 2" xmlns="http://www.w3.org/2000/svg" viewBox="0 0 588.14 588.14">
  <defs>
    <style>
      .cls-1 {
        fill: #302e4d;
      }
    </style>
  </defs>
  <g id="Capa_1-2" data-name="Capa 1">
    <g>
      <path class="cls-1" d="M184.55,189.18h8.74v-35.1h201.56v35.03h9.01c0-1.4,0-2.57,0-3.73,0-17.24,.01-34.48,0-51.72,0-12.67-9.44-22.1-22.11-22.1-57.93,0-115.86,0-173.78,.01-14.67,0-23.66,8.9-23.68,23.53-.03,17.02,.01,34.05,.04,51.07,0,1.01,.14,2.02,.21,3Zm9.03-58.44c.66-5.73,6.4-10.05,12.76-10.08,14.78-.07,29.56-.02,44.34-.03,43.16,0,86.32,.14,129.47-.15,8.96-.06,15.63,6.24,14.93,14.85-.24,2.96-.04,5.96-.04,9.38H193.48c0-4.83-.42-9.45,.1-13.97Z"/>
      <path class="cls-1" d="M382.81,351.55c13.61-.32,23.67-13.28,20.46-26.29h-7.93c-.12,.59-.25,1-.27,1.41-.63,11.91-4.61,15.62-16.59,15.61-36.82-.01-73.65,0-110.47,0-20.34,0-40.68,0-61.02-.03-8.33-.01-13.43-5.01-13.68-13.24-.04-1.25-.14-2.49-.21-3.65h-8.85c.21,3.39,.05,6.54,.67,9.53,2.17,10.36,11.2,16.68,23.18,16.68,52.24-.03,104.48-.02,156.72-.03,5.99,0,11.99,.14,17.98,0Z"/>
      <path class="cls-1" d="M264.99,318.65c2.41,0,4.33-.24,6.17,.05,3.03,.48,4.21-.9,5.29-3.56,10.09-24.98,20.35-49.89,30.54-74.83,5.49-13.44,10.96-26.9,16.69-40.96-2.38,0-4.18,.18-5.94-.04-3.03-.37-4.4,.88-5.56,3.72-14.01,34.57-28.17,69.08-42.29,103.61-1.56,3.83-3.12,7.66-4.89,12.01Z"/>
      <path class="cls-1" d="M202.39,260.93c0,1.96,.65,3.07,2.32,4.06,14.25,8.48,28.45,17.04,42.67,25.58,2.73,1.64,5.46,3.26,8.76,5.23,0-3.29,.21-6.07-.1-8.79-.14-1.22-1.04-2.78-2.06-3.41-13.4-8.23-26.89-16.31-40.35-24.45-.76-.46-1.45-1.04-2.4-1.72,1.27-.78,2.16-1.35,3.07-1.89,13.11-7.88,26.24-15.74,39.31-23.68,.96-.58,2.12-1.72,2.22-2.69,.29-2.94,.11-5.92,.11-9.47-1.46,.83-2.46,1.37-3.43,1.95-14.04,8.42-28.05,16.88-42.12,25.25-8.04,4.79-8.02,4.72-8,14.03Z"/>
      <path class="cls-1" d="M334.93,283.08c-1.08,.65-2.49,1.76-2.61,2.79-.35,3.01-.12,6.09-.12,9.61,1.48-.82,2.5-1.34,3.48-1.93,14.32-8.58,28.45-17.51,43.04-25.59,5.67-3.14,8.14-6.63,7.25-12.98-.31-2.2-.69-3.63-2.73-4.83-11.8-6.96-23.5-14.08-35.24-21.13-5.18-3.11-10.38-6.18-16.08-9.57,0,2.85,.14,5.07-.03,7.28-.22,2.77,.81,4.42,3.29,5.86,11.38,6.61,22.63,13.45,33.91,20.23,2.52,1.51,4.99,3.1,7.83,4.87-2.41,1.51-4.29,2.73-6.21,3.88-11.93,7.16-23.88,14.29-35.77,21.5Z"/>
      <path class="cls-1" d="M188.04,295.12c0-2.79-.09-5.11,.02-7.42,.11-2.35-.64-3.83-2.83-5.12-12.81-7.55-25.52-15.29-38.25-22.98-.87-.53-1.7-1.12-2.83-1.87,1.03-.69,1.71-1.17,2.42-1.6,13-7.86,26.02-15.71,39-23.61,.92-.56,2.15-1.52,2.22-2.37,.27-3.15,.11-6.33,.11-10.04-15.53,9.36-30.3,18.68-45.5,27.22-5.69,3.2-8.44,6.69-7.38,13.23,.33,2.08,.71,3.44,2.62,4.58,15.83,9.4,31.59,18.91,47.37,28.38,.79,.48,1.64,.87,3.03,1.6Z"/>
      <path class="cls-1" d="M452.98,254.07c-.26-1.26-.97-2.84-1.98-3.46-14.7-9-29.48-17.86-44.24-26.74-1.98-1.19-4-2.32-6.46-3.74,0,3.06,.15,5.61-.04,8.13-.17,2.25,.78,3.45,2.65,4.55,9.04,5.32,18,10.77,26.99,16.19,4.74,2.85,9.46,5.73,14.59,8.83-12.37,7.39-24.29,14.55-36.25,21.65-8.16,4.85-8.18,4.81-7.87,14.33,0,.21,.07,.42,.2,1.11,.71-.37,1.17-.57,1.6-.83,14.34-8.55,28.46-17.51,43.13-25.47,6.43-3.49,9.1-7.64,7.68-14.54Z"/>
      <path class="cls-1" d="M381.44,162.97c-1.05-.17-2.14-.1-3.21-.1-14.99,0-29.99,0-44.98,0-14.25,0-28.49,0-42.74,0-1.93,0-3.87-.15-5.78,.05-2.46,.25-3.89,1.86-3.94,4.29-.06,2.48,1.39,3.97,3.85,4.35,.84,.13,1.71,.1,2.56,.1,30.52,0,61.05,0,91.57,0,.86,0,1.73,.04,2.56-.1,2.48-.4,3.79-2.01,3.8-4.43,0-2.33-1.4-3.77-3.7-4.15Z"/>
      <path class="cls-1" d="M242.35,162.9c-3.15,.04-5,1.58-5.11,4.09-.12,2.67,1.81,4.63,4.94,4.67,8.23,.09,16.46,.09,24.68,.04,2.93-.02,4.94-1.89,4.97-4.33,.03-2.62-1.99-4.46-5.12-4.5-3.95-.06-7.91-.01-11.86-.01,0,.01,0,.03,0,.04-4.17,0-8.34-.04-12.5,.01Z"/>
      <path class="cls-1" d="M208.15,162.95c-2.79,.09-4.42,1.66-4.43,4.42,0,2.61,1.54,4.23,4.2,4.27,5.54,.09,11.09,.1,16.63-.01,2.73-.06,4.37-1.62,4.46-4.42,.08-2.52-1.89-4.29-4.86-4.39-2.56-.08-5.12-.02-7.68-.02,0,.04,0,.09,0,.13-2.77,0-5.55-.07-8.32,.02Z"/>
      <path class="cls-1" d="M225.33,138.09c2.86,.06,5.32-2.29,5.39-5.18,.07-2.82-2.42-5.37-5.22-5.35-2.67,.01-5.06,2.35-5.2,5.07-.15,2.93,2.13,5.4,5.03,5.46Z"/>
      <path class="cls-1" d="M243.77,138.09c2.75-.03,5.01-2.35,5.05-5.2,.04-2.79-2.23-5.24-4.94-5.33-2.77-.09-5.38,2.43-5.42,5.24-.04,2.89,2.39,5.31,5.31,5.28Z"/>
      <path class="cls-1" d="M207.81,137.95c2.8,.07,5.05-2.15,5.09-5.03,.04-2.81-2.15-5.22-4.86-5.35-2.73-.13-5.36,2.43-5.37,5.23-.01,2.61,2.45,5.07,5.14,5.14Z"/>
      <path class="cls-1" d="M182.05,395.93c-16.78,0-27.76,10.16-27.76,27.08s10.98,27.08,27.76,27.08,27.76-10.16,27.76-27.08-10.98-27.08-27.76-27.08Zm0,43.82c-10.37,0-15.49-6.83-15.49-16.74s5.12-16.74,15.49-16.74,15.49,6.83,15.49,16.74-5.12,16.74-15.49,16.74Z"/>
      <polygon class="cls-1" points="211.95 407.7 228.98 407.7 228.98 448.66 240.9 448.66 240.9 407.7 257.92 407.7 257.92 397.36 211.95 397.36 211.95 407.7"/>
      <polygon class="cls-1" points="323.82 448.66 323.82 397.36 307.47 397.36 294.45 429.85 281.43 397.36 265.08 397.36 265.08 448.66 276.99 448.66 276.99 416.47 289.83 448.66 299.06 448.66 311.9 416.47 311.9 448.66 323.82 448.66"/>
      <path class="cls-1" d="M351.11,397.36l-21.21,51.3h12.84l3.94-10.05h20.68l3.94,10.05h12.84l-21.21-51.3h-11.81Zm-.5,31.27l6.4-16.24,6.4,16.24h-12.81Z"/>
      <path class="cls-1" d="M433.35,414.71c0-11.91-9.16-17.35-20.18-17.35h-22.97v51.3h11.91v-17.67h9.09l9.87,17.67h12.77l-10.73-19.21c6.37-2.68,10.23-7.69,10.23-14.74Zm-20.18,7.01h-11.05v-14.02h11.05c4.69,0,8.12,1.97,8.12,7.01s-3.43,7.01-8.12,7.01Z"/>
      <polygon class="cls-1" points="219.52 473.37 216.32 461.93 214.57 461.93 211.37 473.37 207.77 461.93 206.09 461.93 210.73 476.38 212.09 476.38 215.45 464.34 218.8 476.38 220.16 476.38 224.8 461.93 223.13 461.93 219.52 473.37"/>
      <polygon class="cls-1" points="228.95 469.72 236.46 469.72 236.46 468.27 228.95 468.27 228.95 463.38 236.93 463.38 236.93 461.93 227.32 461.93 227.32 476.38 237.03 476.38 237.03 474.93 228.95 474.93 228.95 469.72"/>
      <path class="cls-1" d="M248.93,468.75c1.27-.41,2-1.68,2-2.97,0-2.92-2.25-3.85-4.86-3.85h-5.81v14.46h6.01c2.71,0,5.24-1.11,5.24-4.16,0-1.71-.94-2.97-2.58-3.47Zm-7.04-5.37h4.17c1.75,0,3.19,.4,3.19,2.4,0,1.33-.75,2.34-2.15,2.34h-5.21v-4.74Zm4.37,11.55h-4.37v-5.36h5.21c1.62,0,2.73,1.01,2.73,2.65,0,2.1-1.74,2.71-3.57,2.71Z"/>
      <path class="cls-1" d="M264.94,461.93h-4.64v14.46h4.64c4.62,0,7.06-2.69,7.06-7.23s-2.44-7.23-7.06-7.23Zm0,13h-3v-11.55h3c3.71,0,5.38,2.24,5.38,5.78s-1.67,5.78-5.38,5.78Z"/>
      <polygon class="cls-1" points="276.65 469.72 284.16 469.72 284.16 468.27 276.65 468.27 276.65 463.38 284.63 463.38 284.63 461.93 275.01 461.93 275.01 476.38 284.73 476.38 284.73 474.93 276.65 474.93 276.65 469.72"/>
      <polygon class="cls-1" points="293.6 474 288.79 461.93 287.05 461.93 292.94 476.38 294.26 476.38 300.15 461.93 298.41 461.93 293.6 474"/>
      <polygon class="cls-1" points="304.3 469.72 311.81 469.72 311.81 468.27 304.3 468.27 304.3 463.38 312.29 463.38 312.29 461.93 302.67 461.93 302.67 476.38 312.39 476.38 312.39 474.93 304.3 474.93 304.3 469.72"/>
      <polygon class="cls-1" points="317.24 461.93 315.61 461.93 315.61 476.38 324.63 476.38 324.63 474.93 317.24 474.93 317.24 461.93"/>
      <path class="cls-1" d="M334.06,461.72c-4.42,0-7.13,3.12-7.13,7.43s2.71,7.43,7.13,7.43,7.13-3.12,7.13-7.43-2.71-7.43-7.13-7.43Zm0,13.41c-3.59,0-5.45-2.58-5.45-5.98s1.87-5.98,5.45-5.98,5.45,2.58,5.45,5.98-1.87,5.98-5.45,5.98Z"/>
      <path class="cls-1" d="M350.23,461.93h-6.02v14.46h1.63v-5.5h4.38c2.84,0,4.81-1.51,4.81-4.48s-1.97-4.48-4.81-4.48Zm0,7.5h-4.38v-6.05h4.38c1.97,0,3.16,1.02,3.16,3.02s-1.19,3.02-3.16,3.02Z"/>
      <polygon class="cls-1" points="359.89 469.72 367.4 469.72 367.4 468.27 359.89 468.27 359.89 463.38 367.87 463.38 367.87 461.93 358.26 461.93 358.26 476.38 367.98 476.38 367.98 474.93 359.89 474.93 359.89 469.72"/>
      <path class="cls-1" d="M381.97,466.12c0-2.69-1.86-4.19-4.47-4.19h-6.31v14.46h1.63v-6.07h3.83l3.58,6.07h1.81l-3.64-6.17c2.1-.36,3.56-1.94,3.56-4.09Zm-9.14,2.74v-5.48h4.68c1.75,0,2.81,.97,2.81,2.74s-1.06,2.74-2.81,2.74h-4.68Z"/>
    </g>
    <path class="cls-1" d="M294.07,588.14c-78.55,0-152.4-30.59-207.94-86.13C30.59,446.47,0,372.62,0,294.07S30.59,141.67,86.13,86.13C141.67,30.59,215.52,0,294.07,0s152.4,30.59,207.94,86.13c55.54,55.54,86.13,129.39,86.13,207.94s-30.59,152.4-86.13,207.94c-55.54,55.54-129.39,86.13-207.94,86.13Zm0-585.14C133.57,3,3,133.57,3,294.07s130.57,291.07,291.07,291.07,291.07-130.57,291.07-291.07S454.57,3,294.07,3Z"/>
  </g>
</svg>