<?xml version="1.0" encoding="UTF-8"?>
<svg id="Capa_2" data-name="Capa 2" xmlns="http://www.w3.org/2000/svg" viewBox="0 0 100 100">
  <defs>
    <style>
      .cls-1 {
        fill: #302e4d;
      }
    </style>
  </defs>
  <g id="Capa_1-2" data-name="Capa 1">
    <g>
      <path class="cls-1" d="M31.38,32.16h1.49v-5.97h34.27v5.96h1.53c0-.24,0-.44,0-.63,0-2.93,0-5.86,0-8.79,0-2.15-1.6-3.76-3.76-3.76-9.85,0-19.7,0-29.55,0-2.49,0-4.02,1.51-4.03,4,0,2.89,0,5.79,0,8.68,0,.17,.02,.34,.04,.51Zm1.54-9.94c.11-.97,1.09-1.71,2.17-1.71,2.51-.01,5.03,0,7.54,0,7.34,0,14.68,.02,22.01-.03,1.52-.01,2.66,1.06,2.54,2.52-.04,.5,0,1.01,0,1.59H32.9c0-.82-.07-1.61,.02-2.38Z"/>
      <path class="cls-1" d="M65.09,59.77c2.31-.05,4.02-2.26,3.48-4.47h-1.35c-.02,.1-.04,.17-.05,.24-.11,2.02-.78,2.66-2.82,2.65-6.26,0-12.52,0-18.78,0-3.46,0-6.92,0-10.37,0-1.42,0-2.28-.85-2.33-2.25,0-.21-.02-.42-.03-.62h-1.5c.04,.58,0,1.11,.11,1.62,.37,1.76,1.9,2.84,3.94,2.84,8.88,0,17.76,0,26.65,0,1.02,0,2.04,.02,3.06,0Z"/>
      <path class="cls-1" d="M45.06,54.18c.41,0,.74-.04,1.05,0,.51,.08,.72-.15,.9-.61,1.72-4.25,3.46-8.48,5.19-12.72,.93-2.29,1.86-4.57,2.84-6.96-.4,0-.71,.03-1.01,0-.52-.06-.75,.15-.94,.63-2.38,5.88-4.79,11.75-7.19,17.62-.27,.65-.53,1.3-.83,2.04Z"/>
      <path class="cls-1" d="M34.41,44.36c0,.33,.11,.52,.39,.69,2.42,1.44,4.84,2.9,7.25,4.35,.46,.28,.93,.55,1.49,.89,0-.56,.04-1.03-.02-1.49-.02-.21-.18-.47-.35-.58-2.28-1.4-4.57-2.77-6.86-4.16-.13-.08-.25-.18-.41-.29,.22-.13,.37-.23,.52-.32,2.23-1.34,4.46-2.68,6.68-4.03,.16-.1,.36-.29,.38-.46,.05-.5,.02-1.01,.02-1.61-.25,.14-.42,.23-.58,.33-2.39,1.43-4.77,2.87-7.16,4.29-1.37,.81-1.36,.8-1.36,2.38Z"/>
      <path class="cls-1" d="M56.95,48.13c-.18,.11-.42,.3-.44,.48-.06,.51-.02,1.04-.02,1.63,.25-.14,.43-.23,.59-.33,2.43-1.46,4.84-2.98,7.32-4.35,.96-.53,1.38-1.13,1.23-2.21-.05-.37-.12-.62-.46-.82-2.01-1.18-4-2.39-5.99-3.59-.88-.53-1.76-1.05-2.73-1.63,0,.48,.02,.86,0,1.24-.04,.47,.14,.75,.56,1,1.93,1.12,3.85,2.29,5.77,3.44,.43,.26,.85,.53,1.33,.83-.41,.26-.73,.46-1.06,.66-2.03,1.22-4.06,2.43-6.08,3.66Z"/>
      <path class="cls-1" d="M31.97,50.18c0-.47-.01-.87,0-1.26,.02-.4-.11-.65-.48-.87-2.18-1.28-4.34-2.6-6.5-3.91-.15-.09-.29-.19-.48-.32,.18-.12,.29-.2,.41-.27,2.21-1.34,4.42-2.67,6.63-4.01,.16-.09,.36-.26,.38-.4,.05-.54,.02-1.08,.02-1.71-2.64,1.59-5.15,3.18-7.74,4.63-.97,.54-1.43,1.14-1.25,2.25,.06,.35,.12,.59,.45,.78,2.69,1.6,5.37,3.22,8.05,4.82,.13,.08,.28,.15,.52,.27Z"/>
      <path class="cls-1" d="M77.02,43.2c-.04-.21-.17-.48-.34-.59-2.5-1.53-5.01-3.04-7.52-4.55-.34-.2-.68-.39-1.1-.64,0,.52,.03,.95,0,1.38-.03,.38,.13,.59,.45,.77,1.54,.9,3.06,1.83,4.59,2.75,.81,.49,1.61,.97,2.48,1.5-2.1,1.26-4.13,2.47-6.16,3.68-1.39,.82-1.39,.82-1.34,2.44,0,.04,.01,.07,.03,.19,.12-.06,.2-.1,.27-.14,2.44-1.45,4.84-2.98,7.33-4.33,1.09-.59,1.55-1.3,1.31-2.47Z"/>
      <path class="cls-1" d="M64.85,27.71c-.18-.03-.36-.02-.54-.02-2.55,0-5.1,0-7.65,0-2.42,0-4.84,0-7.27,0-.33,0-.66-.03-.98,0-.42,.04-.66,.32-.67,.73,0,.42,.24,.67,.65,.74,.14,.02,.29,.02,.44,.02,5.19,0,10.38,0,15.57,0,.15,0,.29,0,.44-.02,.42-.07,.65-.34,.65-.75,0-.4-.24-.64-.63-.71Z"/>
      <path class="cls-1" d="M41.21,27.7c-.54,0-.85,.27-.87,.7-.02,.45,.31,.79,.84,.79,1.4,.01,2.8,.02,4.2,0,.5,0,.84-.32,.85-.74,0-.45-.34-.76-.87-.77-.67,0-1.34,0-2.02,0,0,0,0,0,0,0-.71,0-1.42,0-2.13,0Z"/>
      <path class="cls-1" d="M35.39,27.71c-.47,.02-.75,.28-.75,.75,0,.44,.26,.72,.71,.73,.94,.02,1.89,.02,2.83,0,.46,0,.74-.27,.76-.75,.01-.43-.32-.73-.83-.75-.43-.01-.87,0-1.31,0,0,0,0,.01,0,.02-.47,0-.94-.01-1.41,0Z"/>
      <path class="cls-1" d="M38.31,23.48c.49,.01,.9-.39,.92-.88,.01-.48-.41-.91-.89-.91-.45,0-.86,.4-.88,.86-.03,.5,.36,.92,.86,.93Z"/>
      <path class="cls-1" d="M41.45,23.48c.47,0,.85-.4,.86-.88,0-.47-.38-.89-.84-.91-.47-.02-.92,.41-.92,.89,0,.49,.41,.9,.9,.9Z"/>
      <path class="cls-1" d="M35.33,23.46c.48,.01,.86-.37,.87-.85,0-.48-.37-.89-.83-.91-.46-.02-.91,.41-.91,.89,0,.44,.42,.86,.87,.87Z"/>
      <path class="cls-1" d="M30.95,67.32c-2.85,0-4.72,1.73-4.72,4.6s1.87,4.6,4.72,4.6,4.72-1.73,4.72-4.6-1.87-4.6-4.72-4.6Zm0,7.45c-1.76,0-2.63-1.16-2.63-2.85s.87-2.85,2.63-2.85,2.63,1.16,2.63,2.85-.87,2.85-2.63,2.85Z"/>
      <polygon class="cls-1" points="36.04 69.32 38.93 69.32 38.93 76.28 40.96 76.28 40.96 69.32 43.85 69.32 43.85 67.56 36.04 67.56 36.04 69.32"/>
      <polygon class="cls-1" points="55.06 76.28 55.06 67.56 52.28 67.56 50.06 73.09 47.85 67.56 45.07 67.56 45.07 76.28 47.1 76.28 47.1 70.81 49.28 76.28 50.85 76.28 53.03 70.81 53.03 76.28 55.06 76.28"/>
      <path class="cls-1" d="M59.7,67.56l-3.61,8.72h2.18l.67-1.71h3.52l.67,1.71h2.18l-3.61-8.72h-2.01Zm-.09,5.32l1.09-2.76,1.09,2.76h-2.18Z"/>
      <path class="cls-1" d="M73.68,70.51c0-2.03-1.56-2.95-3.43-2.95h-3.9v8.72h2.03v-3h1.54l1.68,3h2.17l-1.82-3.27c1.08-.46,1.74-1.31,1.74-2.51Zm-3.43,1.19h-1.88v-2.38h1.88c.8,0,1.38,.33,1.38,1.19s-.58,1.19-1.38,1.19Z"/>
      <polygon class="cls-1" points="37.32 80.49 36.78 78.54 36.48 78.54 35.94 80.49 35.33 78.54 35.04 78.54 35.83 81 36.06 81 36.63 78.95 37.2 81 37.43 81 38.22 78.54 37.94 78.54 37.32 80.49"/>
      <polygon class="cls-1" points="38.93 79.86 40.2 79.86 40.2 79.62 38.93 79.62 38.93 78.79 40.29 78.79 40.29 78.54 38.65 78.54 38.65 81 40.3 81 40.3 80.75 38.93 80.75 38.93 79.86"/>
      <path class="cls-1" d="M42.32,79.7c.22-.07,.34-.29,.34-.51,0-.5-.38-.65-.83-.65h-.99v2.46h1.02c.46,0,.89-.19,.89-.71,0-.29-.16-.51-.44-.59Zm-1.2-.91h.71c.3,0,.54,.07,.54,.41,0,.23-.13,.4-.37,.4h-.89v-.81Zm.74,1.96h-.74v-.91h.89c.28,0,.46,.17,.46,.45,0,.36-.3,.46-.61,.46Z"/>
      <path class="cls-1" d="M45.05,78.54h-.79v2.46h.79c.78,0,1.2-.46,1.2-1.23s-.41-1.23-1.2-1.23Zm0,2.21h-.51v-1.96h.51c.63,0,.92,.38,.92,.98s-.28,.98-.92,.98Z"/>
      <polygon class="cls-1" points="47.04 79.86 48.31 79.86 48.31 79.62 47.04 79.62 47.04 78.79 48.4 78.79 48.4 78.54 46.76 78.54 46.76 81 48.41 81 48.41 80.75 47.04 80.75 47.04 79.86"/>
      <polygon class="cls-1" points="49.92 80.59 49.1 78.54 48.81 78.54 49.81 81 50.03 81 51.03 78.54 50.74 78.54 49.92 80.59"/>
      <polygon class="cls-1" points="51.74 79.86 53.02 79.86 53.02 79.62 51.74 79.62 51.74 78.79 53.1 78.79 53.1 78.54 51.46 78.54 51.46 81 53.11 81 53.11 80.75 51.74 80.75 51.74 79.86"/>
      <polygon class="cls-1" points="53.94 78.54 53.66 78.54 53.66 81 55.2 81 55.2 80.75 53.94 80.75 53.94 78.54"/>
      <path class="cls-1" d="M56.8,78.51c-.75,0-1.21,.53-1.21,1.26s.46,1.26,1.21,1.26,1.21-.53,1.21-1.26-.46-1.26-1.21-1.26Zm0,2.28c-.61,0-.93-.44-.93-1.02s.32-1.02,.93-1.02,.93,.44,.93,1.02-.32,1.02-.93,1.02Z"/>
      <path class="cls-1" d="M59.55,78.54h-1.02v2.46h.28v-.94h.75c.48,0,.82-.26,.82-.76s-.33-.76-.82-.76Zm0,1.28h-.75v-1.03h.75c.33,0,.54,.17,.54,.51s-.2,.51-.54,.51Z"/>
      <polygon class="cls-1" points="61.19 79.86 62.47 79.86 62.47 79.62 61.19 79.62 61.19 78.79 62.55 78.79 62.55 78.54 60.91 78.54 60.91 81 62.57 81 62.57 80.75 61.19 80.75 61.19 79.86"/>
      <path class="cls-1" d="M64.95,79.25c0-.46-.32-.71-.76-.71h-1.07v2.46h.28v-1.03h.65l.61,1.03h.31l-.62-1.05c.36-.06,.61-.33,.61-.7Zm-1.55,.47v-.93h.8c.3,0,.48,.16,.48,.47s-.18,.47-.48,.47h-.8Z"/>
    </g>
    <path class="cls-1" d="M50,100c-13.36,0-25.91-5.2-35.36-14.64C5.2,75.91,0,63.36,0,50S5.2,24.09,14.64,14.64C24.09,5.2,36.64,0,50,0s25.91,5.2,35.36,14.64c9.44,9.44,14.64,22,14.64,35.36s-5.2,25.91-14.64,35.36c-9.44,9.44-22,14.64-35.36,14.64ZM50,.51C22.71,.51,.51,22.71,.51,50s22.2,49.49,49.49,49.49,49.49-22.2,49.49-49.49S77.29,.51,50,.51Z"/>
  </g>
</svg>